<?xml version="1.0" encoding="UTF-8"?>
<svg id="Lager_1" xmlns="http://www.w3.org/2000/svg" version="1.1" viewBox="0 30 240.94 80"
  <!-- Generator: Adobe Illustrator 29.4.0, SVG Export Plug-In . SVG Version: 2.1.0 Build 152)  -->
  <defs>
    <style>
      .st0 {
        fill: #FFFFFF;
      }

      .st1 {
        fill: #a5becd;
      }
    </style>
  </defs>
  <g>
    <g>
      <path class="st0" d="M71.43,66.14c-.31.31-.58.43-.96.43v-.22c.37,0,.58-.1.83-.36.32-.33.36-.7.09-.97-.12-.12-.27-.18-.41-.17-.14.01-.22.05-.41.2l-.28.21c-.18.14-.36.21-.52.23-.2.02-.39-.05-.55-.21-.35-.34-.33-.81.06-1.22.25-.26.49-.36.82-.39v.2c-.24.02-.45.07-.69.33-.3.31-.31.65-.04.91.12.12.25.17.38.16.13-.01.3-.09.44-.19l.26-.2c.22-.17.34-.22.51-.24.21-.02.42.05.59.21.36.34.32.84-.1,1.28Z"/>
      <path class="st0" d="M75.16,63.38l-1.64-.96-.19,1.09.4.69-.19.11-1.47-2.56.19-.11.92,1.6.38-2.34.23-.13-.23,1.43,1.83,1.05-.23.13Z"/>
      <path class="st0" d="M76.92,62.71l-.69-2.87,1.74-.42.05.19-1.52.37.27,1.13,1.3-.31.05.19-1.3.31.28,1.16,1.52-.37.05.19-1.74.42Z"/>
      <path class="st0" d="M81.57,60.93l-.86-.04-.05,1.25h-.22s.12-2.96.12-2.96l1.08.04c.51.02.88.35.85.89-.02.54-.42.83-.92.81ZM81.61,59.43l-.83-.04-.05,1.3.83.04c.4.02.7-.18.72-.62.02-.44-.26-.66-.66-.68Z"/>
      <path class="st0" d="M85.37,61.68l-.82-.27-.39,1.19-.21-.07.91-2.81,1.03.34c.48.16.75.57.58,1.09-.17.51-.63.69-1.11.53ZM85.81,60.25l-.79-.26-.4,1.24.79.26c.38.13.72.02.86-.4.14-.42-.07-.71-.46-.83Z"/>
      <path class="st0" d="M87.96,64.39c-.36-.25-.52-.5-.59-.87l.22-.04c.07.37.2.56.5.76.38.26.75.24.97-.08.1-.14.13-.29.1-.43-.04-.14-.09-.2-.27-.37l-.25-.24c-.17-.15-.27-.31-.32-.47-.06-.2-.02-.39.11-.58.28-.41.74-.47,1.21-.16.3.2.44.42.52.74l-.2.04c-.06-.24-.15-.43-.44-.63-.35-.24-.7-.19-.91.12-.1.14-.13.28-.09.41.04.13.14.28.26.4l.24.22c.21.19.28.3.33.46.06.2.02.42-.11.62-.28.41-.77.46-1.28.12Z"/>
      <path class="st0" d="M90.83,66.99l-.72-.86,2.27-1.89.69.84c.31.37.33.84-.05,1.15-.24.2-.55.23-.8.07.12.31.04.63-.23.84-.4.34-.84.25-1.17-.15ZM91.9,66.07l-.56-.67-.93.77.56.67c.26.31.6.37.89.13.29-.24.3-.59.04-.9ZM92.91,65.19l-.53-.64-.88.73.53.65c.23.27.54.4.86.14s.25-.59.02-.87Z"/>
      <path class="st0" d="M93.01,70.88l.98-1.17-.31-.75-1.25.52-.09-.21,2.72-1.14.43,1.04c.18.44.07.89-.4,1.09-.41.17-.77.03-1-.32l-.98,1.18-.1-.24ZM95.3,69.22l-.33-.8-1.1.46.34.8c.14.35.43.53.8.37.37-.16.45-.48.3-.83Z"/>
      <path class="st0" d="M93.98,74.47c-.21-.17-.35-.43-.38-.7-.03-.28.05-.55.22-.76.24-.3.5-.33,1.16-.4.66-.07.92-.09,1.22.15.21.17.35.42.38.7.03.27-.05.55-.22.76-.24.3-.5.33-1.16.4-.66.07-.92.09-1.22-.15ZM96.22,74.06c.13-.17.19-.37.17-.58-.02-.21-.12-.4-.28-.53-.23-.19-.46-.18-1.09-.12-.63.07-.86.11-1.04.34-.13.16-.19.37-.17.58.02.21.12.4.28.53.23.19.46.18,1.09.12.63-.07.86-.11,1.04-.34Z"/>
      <path class="st0" d="M93.27,78.53l2.85-1.16-2.51-.51.04-.22,2.89.58-.04.22-2.84,1.16,2.51.51-.04.22-2.89-.58.04-.22Z"/>
      <path class="st0" d="M92.81,81.54c.18-.33.58-.45.91-.28.33.18.45.59.28.91-.18.33-.58.45-.91.28-.33-.18-.45-.59-.28-.91Z"/>
      <path class="st0" d="M90.18,83.97c.3-.32.57-.44.96-.45v.22c-.37.01-.58.11-.82.37-.32.34-.36.71-.07.97.13.12.27.18.41.16.14-.01.22-.05.41-.2l.27-.21c.18-.14.35-.22.52-.24.2-.02.39.04.56.21.36.34.35.81-.04,1.22-.25.27-.48.37-.81.4v-.2c.24-.02.44-.08.68-.33.29-.31.3-.66.02-.92-.12-.12-.25-.17-.39-.15-.13.02-.3.09-.43.2l-.25.2c-.22.17-.34.23-.5.25-.21.03-.42-.04-.59-.21-.36-.34-.33-.84.09-1.28Z"/>
      <path class="st0" d="M86.5,86.78l1.66.94.17-1.09-.41-.69.19-.11,1.5,2.54-.19.11-.94-1.58-.35,2.35-.23.14.21-1.43-1.85-1.02.23-.14Z"/>
      <path class="st0" d="M84.74,87.47l.74,2.86-1.73.45-.05-.19,1.52-.39-.29-1.12-1.29.33-.05-.19,1.29-.33-.3-1.15-1.52.39-.05-.19,1.73-.45Z"/>
      <path class="st0" d="M80.12,89.32l.86.02.03-1.25h.22s-.08,2.95-.08,2.95l-1.08-.03c-.51,0-.88-.33-.87-.87.02-.54.4-.84.91-.83ZM80.11,90.82l.83.02.03-1.3-.83-.02c-.41-.01-.7.19-.71.63-.01.44.27.66.67.67Z"/>
      <path class="st0" d="M76.32,88.63l.82.25.37-1.2.21.07-.87,2.82-1.03-.32c-.49-.15-.76-.56-.6-1.07.16-.51.62-.7,1.1-.55ZM75.9,90.07l.8.25.39-1.24-.8-.25c-.39-.12-.72,0-.85.42-.13.42.08.71.47.82Z"/>
      <path class="st0" d="M73.68,85.96c.37.24.53.49.61.87l-.22.04c-.08-.37-.21-.55-.51-.75-.39-.26-.76-.23-.97.1-.1.14-.13.29-.09.43.04.13.09.2.27.37l.26.23c.17.15.28.31.32.47.06.2.02.39-.1.58-.27.41-.74.48-1.21.17-.31-.2-.44-.41-.54-.73l.2-.04c.07.23.16.43.45.62.36.24.7.18.91-.13.09-.14.12-.27.08-.4-.04-.13-.14-.28-.27-.39l-.24-.22c-.21-.19-.29-.3-.33-.45-.06-.2-.03-.42.1-.62.27-.41.77-.47,1.28-.14Z"/>
      <path class="st0" d="M70.77,83.4l.73.85-2.24,1.92-.71-.82c-.32-.37-.34-.83.03-1.15.23-.2.54-.24.8-.08-.13-.31-.05-.62.21-.85.4-.34.83-.26,1.17.13ZM68.71,85.24l.54.64.87-.74-.54-.63c-.23-.27-.55-.39-.86-.13-.31.27-.24.6,0,.87ZM69.71,84.34l.57.66.92-.79-.57-.66c-.26-.3-.61-.36-.89-.11-.29.25-.29.59-.03.9Z"/>
      <path class="st0" d="M68.52,79.55l-.96,1.19.32.75,1.25-.54.09.2-2.7,1.18-.45-1.03c-.19-.44-.08-.89.39-1.09.4-.18.77-.05,1,.3l.96-1.2.1.24ZM66.26,81.24l.35.8,1.09-.48-.35-.8c-.15-.35-.43-.52-.81-.36-.37.16-.44.49-.29.83Z"/>
      <path class="st0" d="M67.51,75.97c.22.17.35.42.39.7.03.28-.04.55-.21.77-.23.3-.49.34-1.16.42-.66.08-.92.11-1.22-.13-.22-.17-.36-.42-.39-.7-.03-.27.04-.55.21-.77.24-.3.49-.33,1.16-.41.66-.08.92-.11,1.22.13ZM65.27,76.42c-.13.16-.18.37-.16.58.03.21.13.4.29.53.24.19.46.17,1.09.1.63-.08.85-.12,1.04-.36.13-.16.18-.37.16-.58-.03-.21-.13-.4-.29-.53-.23-.18-.46-.17-1.09-.1-.63.07-.85.12-1.04.35Z"/>
      <path class="st0" d="M68.15,71.9l-2.83,1.2,2.52.47-.04.22-2.9-.54.04-.22,2.83-1.21-2.51-.47.04-.22,2.9.54-.04.22Z"/>
      <path class="st0" d="M68.57,68.89c-.17.33-.58.46-.91.29-.33-.17-.46-.58-.29-.91.17-.33.58-.46.91-.29.33.17.46.58.29.91Z"/>
    </g>
    <g>
      <path class="st1" d="M80.75,63.84c-.28,0-.55.01-.82.03-.77.06-1.51.19-2.23.39v21.72c.72.2,1.46.33,2.23.39.27.02.54.03.82.03.49,0,.97-.03,1.44-.1.77-.1,1.51-.27,2.22-.51v-8.01c0-1.04-.42-1.98-1.1-2.66.68-.68,1.1-1.62,1.1-2.66v-8.01c-.71-.24-1.46-.42-2.22-.52-.47-.06-.95-.09-1.44-.09ZM82.18,80.96v3.09c-.47.07-.95.11-1.44.11-.17,0-.34,0-.5-.02-.11,0-.21-.01-.32-.02v-7.9h.71c.85,0,1.55.69,1.55,1.54v3.19ZM82.18,67.72v4.74c0,.85-.7,1.55-1.55,1.55h-.71v-7.9c.06,0,.12,0,.18-.01.21-.02.42-.03.63-.03.49,0,.97.04,1.44.12v1.55Z"/>
      <path class="st1" d="M88.79,67.22c-.33-.34-.68-.65-1.06-.95-.37-.3-.76-.57-1.17-.81-.34-.21-.69-.39-1.06-.56v2.53c.37.23.72.49,1.06.77v16.59c.41-.25.8-.52,1.17-.81.37-.29.72-.61,1.06-.95v-12.04c.19.37.36.77.5,1.17h2.33c-.51-1.89-1.5-3.57-2.83-4.93Z"/>
      <path class="st1" d="M74.07,66.02v6.43c0,.85-.69,1.55-1.55,1.55h-.76s0-.02,0-.03c.15-1.16.52-2.26,1.06-3.25v-3.64c-1.83,1.8-3.04,4.22-3.31,6.92-.04.37-.06.74-.06,1.11s.02.75.06,1.11c.27,2.7,1.48,5.12,3.31,6.92v-3.64c-.55-.99-.92-2.08-1.06-3.25,0-.01,0-.02,0-.03h.76c.85,0,1.55.69,1.55,1.54v6.43c.32.23.64.45.98.65.4.23.82.45,1.24.63v-7.71c0-1.04-.42-1.98-1.1-2.66.68-.68,1.1-1.62,1.1-2.66v-7.71c-.43.18-.84.4-1.24.63-.34.2-.67.41-.98.65Z"/>
    </g>
  </g>
  <g>
    <path class="st0" d="M36.32,81.38l-4.03-7.02-2.99,3.63v3.4h-.95v-12.53h.95v7.83l6.35-7.83h1.15l-3.87,4.79,4.52,7.75h-1.13Z"/>
    <path class="st0" d="M47.86,79.45c-.17.42-.42.78-.75,1.06-.32.29-.71.51-1.16.65-.45.15-.96.22-1.5.22h-4.75v-12.53h4.61c.52,0,1,.07,1.44.22.44.15.83.36,1.15.64.32.28.58.62.76,1.03.18.41.27.87.27,1.38,0,.66-.17,1.24-.52,1.75-.35.51-.82.87-1.43,1.06.68.24,1.21.62,1.58,1.14.37.53.56,1.16.56,1.88,0,.56-.09,1.06-.26,1.48ZM46.76,71.02c-.15-.3-.34-.55-.6-.75-.25-.19-.55-.34-.89-.43-.34-.09-.7-.14-1.07-.14h-3.55v4.86h3.55c.37,0,.73-.05,1.07-.14.34-.09.64-.24.89-.43.25-.19.45-.44.6-.75.15-.31.22-.68.22-1.11s-.07-.8-.22-1.11ZM46.4,76.08c-.52-.45-1.2-.68-2.06-.68h-3.7v5.14h3.7c.86,0,1.54-.23,2.06-.68.52-.45.78-1.08.78-1.89s-.26-1.44-.78-1.89Z"/>
    <path class="st0" d="M54.78,69.7v11.69h-.95v-11.69h-3.73v-.84h8.43v.84h-3.75Z"/>
  </g>
  <g>
    <path class="st0" d="M110.23,80.55c-.75.62-1.78.93-3.1.93-.47,0-.89-.03-1.27-.1-.38-.06-.74-.16-1.07-.3-.33-.13-.65-.31-.95-.52-.3-.21-.59-.46-.87-.74l.67-.67c.28.28.55.52.82.7.26.19.54.34.82.46.28.12.58.2.89.24.31.05.65.07,1.03.07,1,0,1.78-.23,2.36-.68.57-.45.86-1.09.86-1.91,0-.76-.23-1.35-.69-1.76-.12-.09-.23-.18-.33-.25-.11-.07-.23-.13-.36-.18-.13-.05-.29-.09-.47-.13-.18-.04-.39-.08-.65-.12l-1.46-.23c-.95-.14-1.7-.45-2.23-.92-.66-.55-.99-1.32-.99-2.3,0-1.06.35-1.89,1.04-2.51.69-.62,1.64-.92,2.85-.92.77,0,1.44.11,1.98.32.55.21,1.09.55,1.63,1.02l-.62.62c-.2-.18-.4-.33-.6-.47-.2-.14-.42-.26-.65-.36-.23-.1-.5-.18-.79-.24-.29-.06-.63-.09-1-.09-.91,0-1.63.23-2.14.7-.51.46-.77,1.1-.77,1.89,0,.73.22,1.27.65,1.64.22.19.5.35.84.48.33.13.68.23,1.03.29l1.36.21c.29.05.55.09.77.14.22.05.42.1.59.17.17.06.33.14.47.23.14.09.28.18.4.29.34.28.61.63.8,1.05.19.42.29.88.29,1.38,0,1.07-.37,1.92-1.13,2.54Z"/>
    <path class="st0" d="M122.31,81.38l-4.03-7.02-2.99,3.63v3.4h-.95v-12.53h.95v7.83l6.35-7.83h1.14l-3.87,4.78,4.52,7.75h-1.13Z"/>
    <path class="st0" d="M125.68,81.38v-12.53h7.6v.84h-6.65v4.94h5.67v.85h-5.67v5.05h6.65v.84h-7.6Z"/>
    <path class="st0" d="M144.3,73.99c-.19.45-.46.82-.79,1.14-.33.31-.73.54-1.2.7-.46.16-.97.24-1.5.24h-3.64v5.32h-.95v-12.53h4.59c.54,0,1.04.08,1.5.25.46.16.86.4,1.2.7.33.31.6.68.79,1.13.19.45.29.96.29,1.53s-.1,1.09-.29,1.53ZM143.42,71.24c-.15-.35-.35-.63-.61-.86-.26-.23-.57-.4-.92-.51-.36-.11-.75-.17-1.19-.17h-3.54v5.52h3.54c.43,0,.83-.05,1.19-.17.36-.11.67-.28.92-.51.26-.23.46-.52.61-.86.15-.35.22-.75.22-1.22s-.07-.88-.22-1.22Z"/>
    <path class="st0" d="M155.4,73.99c-.19.45-.46.82-.79,1.14-.33.31-.73.54-1.19.7-.47.16-.96.24-1.51.24h-3.64v5.32h-.95v-12.53h4.59c.54,0,1.04.08,1.51.25.46.16.86.4,1.19.7.33.31.6.68.79,1.13.19.45.29.96.29,1.53s-.1,1.09-.29,1.53ZM154.52,71.24c-.15-.35-.35-.63-.61-.86-.26-.23-.56-.4-.92-.51-.36-.11-.75-.17-1.19-.17h-3.54v5.52h3.54c.43,0,.83-.05,1.19-.17.36-.11.66-.28.92-.51.26-.23.46-.52.61-.86.15-.35.22-.75.22-1.22s-.07-.88-.22-1.22Z"/>
    <path class="st0" d="M164.52,80.55c-.75.62-1.78.93-3.1.93-.47,0-.89-.03-1.28-.1-.38-.06-.74-.16-1.07-.3-.33-.13-.65-.31-.95-.52-.3-.21-.59-.46-.87-.74l.67-.67c.28.28.55.52.82.7.26.19.54.34.82.46.28.12.58.2.89.24.31.05.65.07,1.03.07,1,0,1.78-.23,2.36-.68.57-.45.86-1.09.86-1.91,0-.76-.23-1.35-.69-1.76-.12-.09-.23-.18-.34-.25-.1-.07-.23-.13-.36-.18-.13-.05-.29-.09-.47-.13-.18-.04-.39-.08-.65-.12l-1.46-.23c-.95-.14-1.7-.45-2.24-.92-.66-.55-.99-1.32-.99-2.3,0-1.06.35-1.89,1.04-2.51.69-.62,1.64-.92,2.85-.92.77,0,1.44.11,1.98.32.54.21,1.09.55,1.63,1.02l-.62.62c-.2-.18-.4-.33-.6-.47-.2-.14-.42-.26-.65-.36-.24-.1-.5-.18-.79-.24-.29-.06-.63-.09-1-.09-.92,0-1.63.23-2.14.7-.51.46-.77,1.1-.77,1.89,0,.73.22,1.27.65,1.64.22.19.5.35.84.48.33.13.68.23,1.03.29l1.36.21c.29.05.55.09.77.14.22.05.42.1.59.17.17.06.33.14.47.23.14.09.28.18.4.29.34.28.61.63.8,1.05.19.42.29.88.29,1.38,0,1.07-.38,1.92-1.13,2.54Z"/>
    <path class="st0" d="M176.79,79.45c-.18.42-.42.78-.75,1.06-.32.29-.71.5-1.16.65-.45.14-.96.22-1.51.22h-4.75v-12.53h4.61c.52,0,1,.07,1.44.22.45.15.83.36,1.15.64.32.28.58.62.76,1.03.18.41.27.87.27,1.38,0,.66-.17,1.24-.52,1.75-.35.51-.83.87-1.44,1.06.68.24,1.21.62,1.58,1.14.37.53.56,1.16.56,1.88,0,.56-.09,1.06-.26,1.48ZM175.68,71.02c-.15-.3-.34-.55-.6-.75-.25-.19-.55-.34-.89-.43-.34-.09-.7-.14-1.07-.14h-3.55v4.86h3.55c.37,0,.73-.05,1.07-.14.34-.09.64-.24.89-.43.25-.19.45-.44.6-.75.15-.31.22-.67.22-1.11s-.08-.8-.22-1.11ZM175.33,76.08c-.52-.45-1.2-.68-2.06-.68h-3.7v5.14h3.7c.86,0,1.54-.23,2.06-.68.52-.45.78-1.08.78-1.89s-.26-1.44-.78-1.89Z"/>
    <path class="st0" d="M187.82,81.38l-2.99-5.77h-3.45v5.77h-.95v-12.53h4.77c.5,0,.98.07,1.41.22.44.15.82.36,1.15.64.32.28.57.63.75,1.06.18.42.27.9.27,1.44,0,.94-.26,1.7-.79,2.28-.52.58-1.22.95-2.1,1.1l3.03,5.79h-1.11ZM187.64,71.11c-.13-.32-.33-.58-.57-.79-.25-.21-.54-.37-.88-.47-.34-.1-.71-.15-1.11-.15h-3.7v5.07h3.7c.4,0,.77-.05,1.11-.15.34-.1.63-.25.88-.46.25-.21.44-.48.57-.79.13-.32.2-.69.2-1.13s-.07-.81-.2-1.13Z"/>
    <path class="st0" d="M200.07,76.95c-.01.52-.06.97-.13,1.36-.08.39-.19.73-.35,1.03-.16.3-.38.59-.66.87-.41.41-.89.73-1.42.95-.54.22-1.11.33-1.71.33s-1.17-.11-1.71-.33c-.54-.22-1.02-.54-1.43-.95-.28-.28-.5-.57-.66-.87-.16-.3-.28-.64-.35-1.03-.08-.39-.12-.84-.13-1.36-.01-.52-.02-1.13-.02-1.83s0-1.31.02-1.82c.01-.51.05-.96.13-1.35.07-.39.19-.73.35-1.04.16-.31.38-.6.66-.88.41-.41.88-.73,1.43-.95.54-.22,1.11-.33,1.71-.33s1.17.11,1.71.33c.54.22,1.01.54,1.42.95.28.28.5.58.66.88.16.31.27.65.35,1.04.08.39.12.84.13,1.35,0,.51.02,1.12.02,1.82s0,1.31-.02,1.83ZM199.11,73.4c-.02-.48-.06-.89-.12-1.23-.07-.35-.16-.64-.29-.9-.13-.25-.31-.49-.53-.71-.32-.32-.68-.56-1.09-.72-.41-.16-.84-.25-1.28-.25s-.87.08-1.29.25c-.41.16-.77.4-1.09.72-.22.22-.4.46-.53.71-.13.25-.22.55-.29.9-.06.35-.11.76-.12,1.23-.02.48-.03,1.05-.03,1.72s0,1.24.03,1.72c.02.48.06.89.12,1.23.07.35.16.64.29.9.13.25.3.49.53.71.32.32.68.56,1.09.72.41.16.84.25,1.29.25s.87-.08,1.28-.25c.41-.16.77-.4,1.09-.72.22-.22.4-.46.53-.71.13-.25.22-.55.29-.9.06-.35.11-.76.12-1.23.02-.47.03-1.05.03-1.72s-.01-1.24-.03-1.72Z"/>
    <path class="st0" d="M211.65,81.38l-7.23-10.89v10.89h-.95v-12.53h.95l7.23,10.86v-10.86h.95v12.53h-.95Z"/>
  </g>
</svg>